<?xml version="1.0" encoding="UTF-8"?>
<svg width="127px" height="20px" viewBox="0 0 127 20" version="1.1" xmlns="http://www.w3.org/2000/svg" xmlns:xlink="http://www.w3.org/1999/xlink">
    <!-- Generator: Sketch 48.2 (47327) - http://www.bohemiancoding.com/sketch -->
    <title>Logo</title>
    <desc>Created with Sketch.</desc>
    <defs></defs>
    <g id="Header-/-Tablet-/-iOS" stroke="none" stroke-width="1" fill="none" fill-rule="evenodd" transform="translate(-449.000000, -31.000000)">
        <g id="rtlnieuws-logo" transform="translate(449.000000, 31.000000)">
            <g>
                <path d="M0,19.5662404 L0,8.78010624 C0,6.78671651 1.25692701,6.07667913 2.6494275,6.07667913 L10.7872831,6.07667913 L10.7872831,8.64338383 L2.84072398,8.64338383 L2.84072398,19.5662404 L0,19.5662404 Z M14.9923588,8.64338383 L14.9923588,16.9995357 L22.938918,16.9995357 L22.938918,19.5662404 L14.8016368,19.5662404 C13.4091363,19.5662404 12.1522093,18.856203 12.1522093,16.8633878 L12.1522093,3.37267755 L14.9923588,3.37267755 L14.9923588,6.07667913 L22.938918,6.07667913 L22.938918,8.64338383 L14.9923588,8.64338383 Z M27.1445682,16.9995357 L35.0911273,16.9995357 L35.0911273,19.5662404 L26.9532717,19.5662404 C25.5607712,19.5662404 24.3049931,18.856203 24.3049931,16.8633878 L24.3049931,6.07667913 L27.1445682,6.07667913 L27.1445682,16.9995357 Z" id="Fill-1" fill="#222222" fill-rule="nonzero"></path>
                <path d="M52.1590242,15.824757 C52.1590242,16.6450915 52.3227464,16.9995357 53.1149321,16.9995357 L53.2516545,16.9995357 L53.2516545,19.5662404 L45.4113712,19.5662404 L45.4113712,16.9995357 L45.7146882,16.9995357 C46.5608735,16.9995357 46.8613181,16.6985166 46.8613181,15.824757 L46.8613181,11.1009404 C46.8613181,9.62629156 46.315003,8.94382845 45.1953728,8.94382845 C43.967169,8.94382845 43.2289829,9.89858745 43.2289829,11.8655518 L43.2289829,15.824757 C43.2289829,16.6985166 43.4202794,16.9995357 44.3761873,16.9995357 L44.6795042,16.9995357 L44.6795042,19.5662404 L36.8122211,19.5662404 L36.8122211,16.9995357 L37.0575172,16.9995357 C37.7405548,16.9995357 37.9318513,16.6450915 37.9318513,15.824757 L37.9318513,10.4460515 C37.9318513,9.2166988 37.4125359,8.88925438 36.8667952,8.88925438 L36.8122211,8.88925438 L36.8122211,6.07667913 L43.0928349,6.07667913 L43.0928349,9.24427307 C43.7758725,7.22273461 45.1407987,5.74866024 47.7902262,5.74866024 C50.5206532,5.74866024 52.1590242,7.33245721 52.1590242,10.7194964 L52.1590242,15.824757" id="Fill-2" fill="#35A7D7" fill-rule="nonzero"></path>
                <path d="M60.3790281,15.824757 C60.3790281,16.6450915 60.5703246,16.9995357 61.2533622,16.9995357 L61.6348062,16.9995357 L61.6348062,19.5662404 L53.9622664,19.5662404 L53.9622664,16.9995357 L54.2081369,16.9995357 C54.8906,16.9995357 55.0818965,16.6450915 55.0818965,15.824757 L55.0818965,10.1996065 C55.0818965,8.86225457 54.5620067,8.64338383 54.016266,8.64338383 L53.9622664,8.64338383 L53.9622664,6.07667913 L60.3790281,6.07667913 L60.3790281,15.824757 Z M54.8630258,2.77178831 C54.8630258,1.29656502 56.0918041,0.068361204 57.5670273,0.068361204 C59.0411017,0.068361204 60.26988,1.29656502 60.26988,2.77178831 C60.26988,4.24643714 59.0411017,5.44821562 57.5670273,5.44821562 C56.0918041,5.44821562 54.8630258,4.24643714 54.8630258,2.77178831 Z" id="Fill-3" fill="#35A7D7" fill-rule="nonzero"></path>
                <path d="M69.7186622,19.8672595 C65.0494196,19.8672595 62.2368444,17.4091285 62.2368444,12.8208853 L62.2368444,12.79446 C62.2368444,8.2062168 65.4314381,5.74866024 69.3366437,5.74866024 C73.404997,5.74866024 75.6988314,7.87877238 75.6988314,12.0844226 L75.6988314,13.4774975 L67.6172733,13.4774975 L67.6172733,13.6136455 C67.7798465,16.016628 69.0356246,16.6450915 71.6574779,16.6450915 C73.0505528,16.6450915 74.3069054,16.2354987 75.481684,15.634035 L75.481684,17.8738698 C74.5527759,18.7476294 72.7506827,19.8672595 69.7186622,19.8672595 Z M67.6172733,11.401385 L71.0031635,11.401385 L71.0031635,11.1009404 C71.0031635,8.97140271 70.5929963,7.96092072 69.4733661,7.96092072 C68.2991619,7.96092072 67.7528467,8.86225457 67.6172733,11.401385 Z" id="Fill-4" fill="#35A7D7" fill-rule="nonzero"></path>
                <path d="M86.3223923,10.1174582 C86.3223923,8.86225457 85.8036514,8.64338383 84.9850403,8.64338383 L84.9304663,8.64338383 L84.9304663,6.07667913 L91.6200984,6.07667913 L91.6200984,15.9069054 C91.6200984,16.6985166 92.0302656,16.9995357 92.5754318,16.9995357 L92.9045996,16.9995357 L92.9045996,19.5662404 L86.5958371,19.5662404 L86.5958371,16.8358135 C85.8857997,18.7194806 84.4651505,19.8942593 81.9530199,19.8942593 C79.0852961,19.8942593 77.5020736,18.3104623 77.5020736,14.9251466 L77.5020736,10.1174582 C77.5020736,8.94382845 77.1464804,8.64338383 76.6007397,8.64338383 L76.5461657,8.64338383 L76.5461657,6.07667913 L82.8003541,6.07667913 L82.8003541,14.8148495 C82.8003541,16.2894983 83.3185206,16.9443872 84.4381507,16.9443872 C85.666929,16.9443872 86.3223923,16.0982018 86.3223923,14.5965532 L86.3223923,10.1174582" id="Fill-5" fill="#35A7D7" fill-rule="nonzero"></path>
                <path d="M103.662585,11.9482746 L101.64277,19.5662404 L96.6719339,19.5662404 L94.3235255,9.98131025 C94.1058037,9.05297659 93.6692111,8.88925438 93.3406177,8.88925438 L93.2044698,8.88925438 L93.2044698,6.07667913 L100.386417,6.07667913 L100.386417,8.88925438 L100.277269,8.88925438 C99.1036396,8.88925438 99.0490655,9.189699 99.2667873,10.3914775 L100.25027,15.4703128 L102.571678,6.07667913 L106.393586,6.07667913 L108.879866,15.1692937 L109.944922,10.3914775 C110.217218,9.2166988 109.944922,8.88925438 108.98844,8.88925438 L108.879866,8.88925438 L108.879866,6.07667913 L114.013276,6.07667913 L114.013276,8.88925438 L113.849553,8.88925438 C113.521535,8.88925438 113.222239,9.10812512 112.975219,10.0634586 L110.626811,19.5662404 L105.684698,19.5662404 L103.662585,11.9482746" id="Fill-6" fill="#35A7D7" fill-rule="nonzero"></path>
                <path d="M117.69961,18.3380366 L117.263018,19.5662404 L114.779036,19.5662404 L114.779036,15.3881645 L117.537037,15.3881645 C117.892056,16.7536652 119.174259,17.3821287 120.623057,17.3821287 C121.605391,17.3821287 122.370002,17.0265355 122.370002,16.2894983 C122.370002,15.4973126 121.878261,15.3335904 121.113075,15.2244423 C120.130167,15.0888688 118.301649,15.116443 116.771277,14.3501082 C115.269628,13.6136455 114.669313,12.1941452 114.669313,10.4184773 C114.669313,6.75914224 117.808759,5.74866024 119.884871,5.74866024 C121.687539,5.74866024 122.779595,6.32254968 123.32591,7.16816054 L123.734354,6.07667913 L126.110911,6.07667913 L126.110911,9.95373598 L123.462632,9.95373598 C122.970891,8.78010624 121.95926,8.12406846 120.676482,8.12406846 C119.775723,8.12406846 118.956537,8.45151289 118.956537,9.29884714 C118.956537,9.92616172 119.391981,10.2817549 120.049742,10.3914775 C121.196372,10.582774 123.29891,10.6643478 124.662687,11.3468109 C126.383781,12.1941452 126.875522,13.5320716 126.875522,15.1692937 C126.875522,18.3104623 124.744836,19.8672595 121.468094,19.8672595 C119.364981,19.8672595 118.301649,19.1572221 117.69961,18.3380366" id="Fill-7" fill="#35A7D7" fill-rule="nonzero"></path>
            </g>
        </g>
    </g>
</svg>